<svg xmlns="http://www.w3.org/2000/svg" viewBox="0 0 512 266"><g id="Camada_1" data-name="Camada 1"><path d="M439.11,56.63A20.43,20.43,0,1,0,418.72,36.2,20.4,20.4,0,0,0,439.11,56.63Z" style="fill:#ff671f"/><path d="M439.11,207.51a20.43,20.43,0,1,0,20.38,20.43A20.41,20.41,0,0,0,439.11,207.51Z" style="fill:#ff671f"/><path d="M487.38,162H450.67c-8.77,0-12.23.8-12.23.8v-.53a80.65,80.65,0,0,0,12.23-12.5l43.62-55c4.52-5.85,6.38-9,6.38-16.23V75c0-7.44-5.05-11.43-14.63-11.43H393c-4.29,0-7.67,1-10.1,3-3,2.44-4.53,6.34-4.53,11.63v9.31c0,4.78,1.27,8.44,3.73,10.9s6.12,3.72,10.9,3.72h33.51a91.25,91.25,0,0,0,12-.53v.53a87.48,87.48,0,0,0-12,12.5l-43.88,54.79c-4.52,5.85-6.38,9-6.38,16.22v3.46c0,7.44,5.05,11.43,14.63,11.43h96.54c5.23,0,9.12-1.51,11.56-4.45,2-2.43,3.06-5.84,3.06-10.18v-9.3C502,167,497,162,487.38,162Z" style="fill:#ff671f"/><path d="M212.89,13.35c-2.55-2.21-6.18-3.35-10.82-3.35H185.65c-5.88,0-10.14,1.83-12.65,5.37-1.76,2.48-2.66,5.81-2.66,9.94v7c0,5,1.33,8.84,3.9,11.42s6.4,3.9,11.41,3.9h16.42a17.59,17.59,0,0,0,9.25-2.21c4-2.43,6.06-6.84,6.06-13.11V25.31C217.38,19.93,215.86,15.92,212.89,13.35Z" style="fill:#ff671f"/><path d="M201.73,63.59H185c-4.76,0-8.4,1.25-10.87,3.69s-3.76,6.13-3.76,10.94v107.7c0,4.34,1,7.75,3.07,10.19,2.45,2.93,6.33,4.44,11.56,4.44h16.76c5,0,8.73-1.36,11.19-4,2.27-2.45,3.43-6,3.43-10.61V78.22c0-4.61-1.17-8.18-3.45-10.63C210.44,65,206.69,63.59,201.73,63.59Z" style="fill:#ff671f"/><path d="M354.09,63.19h-12.5c-9.58,0-14.63,5-14.63,11.43v.54a12,12,0,0,0,.27,2.66h-.54S318.45,60,289.2,60c-42.82,0-62.76,32.45-62.76,67.28,0,35.11,20.47,68.88,62.49,68.88,16.22,0,26.06-5.85,33.51-16.75H323s-.27,3.45-.27,5.05v6.92c0,20.21-14.88,26.32-32.18,26.32A75.07,75.07,0,0,1,266.06,214c-9.84-3.19-15.16-.53-18.62,8.51l-2.92,8c-3.46,9.31-1.07,15.16,8,18.88,8.24,3.46,24.73,6.65,40.69,6.65,34.83,0,75.53-18.35,75.53-68.35V77.82C368.72,68.24,363.66,63.19,354.09,63.19Zm-55,94.68c-18.35,0-26.33-15.16-26.33-32.18,0-15.69,8.24-27.39,24.47-27.39,13.83,0,26.59,5.32,26.59,29.52C323.77,151.75,311,157.87,299,157.87Z" style="fill:#ff671f"/><path d="M99.36,10.4H24.63c-4.66,0-8.25,1.2-10.7,3.53C11.33,16.39,10,20.12,10,25V185.92a16.86,16.86,0,0,0,2.1,8.84c2.33,3.82,6.54,5.79,12.53,5.79H41.91c4,0,7.25-.89,9.64-2.64,3.29-2.41,5-6.44,5-12V145.65l-1-.15c-11.64-1.82-20.4-4.65-28.52-13.1h0c9.43,6,20.86,9.38,33.76,9.38H99.36c37,0,62-27.66,62-66S136.33,10.4,99.36,10.4Zm-43,86.12A20.43,20.43,0,1,1,76.71,76.09,20.41,20.41,0,0,1,56.32,96.52Zm58.69,0A20.43,20.43,0,1,1,135.4,76.09,20.41,20.41,0,0,1,115,96.52Z" style="fill:#ff671f"/></g></svg>