<svg id="Camada_1" data-name="Camada 1" xmlns="http://www.w3.org/2000/svg" viewBox="0 0 143.25 180">
  <path d="M141,38H70.22c-4.41,0-7.8,1.13-10.13,3.34s-3.72,5.86-3.72,10.51v152.3a15.93,15.93,0,0,0,2,8.37c2.19,3.61,6.19,5.48,11.85,5.48H86.58c3.81,0,6.87-.85,9.13-2.5,3.11-2.28,4.72-6.1,4.72-11.35V166l-.92-.14c-11-1.73-19.31-4.41-27-12.4h0a58.86,58.86,0,0,0,32,8.87H141c35,0,58.66-26.18,58.66-62.43S176,38,141,38Zm-40.75,81.52a19.34,19.34,0,1,1,19.3-19.34A19.32,19.32,0,0,1,100.22,119.52Zm55.56,0a19.34,19.34,0,1,1,19.3-19.34A19.32,19.32,0,0,1,155.78,119.52Z" transform="translate(-56.37 -38)" style="fill: #ff671f"/>
</svg>
